<svg xmlns="http://www.w3.org/2000/svg" width="43.75" height="30.762" viewBox="0 0 43.75 30.762"><defs><style>.a{fill:#e4e4e4;}</style></defs><path class="a" d="M39.9,76H3.845A3.851,3.851,0,0,0,0,79.845v23.071a3.851,3.851,0,0,0,3.845,3.845H39.9a3.85,3.85,0,0,0,3.845-3.845V79.845A3.849,3.849,0,0,0,39.9,76Zm-.539,2.563L24.594,93.258a3.845,3.845,0,0,1-5.44,0L4.384,78.563Zm-36.8,23.831V80.369L13.641,91.388Zm1.822,1.8,11.073-11,1.885,1.875a6.409,6.409,0,0,0,9.061,0L28.292,93.2l11.073,11Zm36.8-1.8L30.109,91.388,41.187,80.369Z" transform="translate(0 -76)"/></svg>