<svg xmlns="http://www.w3.org/2000/svg" width="43.945" height="62.5" viewBox="0 0 43.945 62.5"><defs><style>.a{fill:#e4e4e4;}</style></defs><g transform="translate(0)"><path class="a" d="M97.973,0A21.977,21.977,0,0,0,79.28,33.527L96.722,61.634a1.831,1.831,0,0,0,1.556.866h.015a1.831,1.831,0,0,0,1.556-.89l17-28.38A21.977,21.977,0,0,0,97.973,0ZM113.7,31.35,98.25,57.152,82.392,31.6A18.323,18.323,0,1,1,113.7,31.35Z" transform="translate(-76)"/></g><g transform="translate(10.986 10.986)"><path class="a" d="M176.986,90a10.986,10.986,0,1,0,10.986,10.986A11,11,0,0,0,176.986,90Zm0,18.335a7.349,7.349,0,1,1,7.336-7.349A7.354,7.354,0,0,1,176.986,108.335Z" transform="translate(-166 -90)"/></g></svg>