<svg xmlns="http://www.w3.org/2000/svg" width="53.125" height="53.125" viewBox="0 0 53.125 53.125"><defs><style>.a{fill:#e4e4e4;}</style></defs><path class="a" d="M38.181,53.125a14.8,14.8,0,0,1-5.078-.907A54.148,54.148,0,0,1,13.441,39.685,54.144,54.144,0,0,1,.908,20.022,14.694,14.694,0,0,1,.158,12.8,15.068,15.068,0,0,1,7.9,1.769,14.793,14.793,0,0,1,14.985,0a1.66,1.66,0,0,1,1.623,1.312l2.606,12.16a1.661,1.661,0,0,1-.449,1.522l-4.452,4.452A43.7,43.7,0,0,0,33.679,38.813l4.452-4.452a1.661,1.661,0,0,1,1.522-.449l12.16,2.606a1.66,1.66,0,0,1,1.312,1.623,14.792,14.792,0,0,1-1.769,7.083,15.068,15.068,0,0,1-11.03,7.744A14.766,14.766,0,0,1,38.181,53.125ZM13.659,3.393a11.633,11.633,0,0,0-9.63,15.5A50.353,50.353,0,0,0,34.237,49.1a11.633,11.633,0,0,0,15.5-9.63l-9.892-2.12L35.191,42a1.66,1.66,0,0,1-1.88.329A47.007,47.007,0,0,1,10.8,19.815a1.66,1.66,0,0,1,.329-1.88l4.65-4.65Z" transform="translate(0)"/></svg>